<?xml version="1.0" standalone="no"?>
<!DOCTYPE svg PUBLIC "-//W3C//DTD SVG 20010904//EN"
 "http://www.w3.org/TR/2001/REC-SVG-20010904/DTD/svg10.dtd">
<svg version="1.0" xmlns="http://www.w3.org/2000/svg"
 width="750.000000pt" height="594.000000pt" viewBox="0 0 750.000000 594.000000"
 preserveAspectRatio="xMidYMid meet">

<g transform="translate(0.000000,594.000000) scale(0.100000,-0.100000)"
fill="#000000" stroke="none">
<path d="M3787 5033 c8 -6 0 -9 -25 -10 -76 -2 -154 -12 -165 -21 -7 -5 -29
-10 -51 -10 -21 -1 -47 -4 -57 -7 -11 -4 -19 -2 -19 4 0 6 -16 11 -36 11 -25
0 -35 -4 -31 -13 5 -14 -40 -40 -48 -27 -3 5 1 11 7 13 7 3 -4 6 -25 6 -23 1
-50 -7 -65 -18 -15 -10 -37 -22 -49 -25 -13 -4 -23 -15 -23 -24 0 -13 -16 -22
-52 -33 -41 -12 -54 -20 -56 -38 -2 -15 -9 -21 -18 -17 -20 8 -44 -3 -44 -20
0 -8 -7 -14 -15 -14 -8 0 -15 -7 -15 -15 0 -8 -9 -15 -19 -15 -11 0 -29 -13
-41 -30 -12 -16 -28 -30 -36 -30 -8 0 -17 -13 -20 -30 -4 -17 -15 -32 -26 -36
-10 -3 -24 -17 -30 -30 -6 -13 -16 -24 -21 -24 -22 0 -88 -121 -92 -169 -1
-15 -14 -46 -29 -70 -15 -24 -25 -49 -22 -56 3 -8 1 -28 -4 -45 -10 -36 -24
-229 -22 -305 10 -352 17 -447 38 -515 7 -25 15 -60 17 -77 2 -18 14 -42 27
-53 24 -20 45 -18 36 5 -10 27 63 66 104 55 23 -5 25 -12 30 -76 12 -141 108
-280 223 -323 103 -38 222 -24 320 38 51 33 58 32 27 -1 -20 -22 -27 -48 -11
-48 22 0 71 23 71 34 0 7 9 22 20 34 11 12 20 29 20 39 0 15 -2 16 -10 3 -20
-29 2 44 35 115 18 39 35 87 38 107 7 44 28 93 42 94 6 0 23 4 38 9 37 10 114
-12 132 -39 8 -11 15 -40 15 -64 0 -27 11 -63 30 -102 17 -33 30 -69 30 -80 0
-13 4 -18 11 -14 8 5 8 1 0 -14 -12 -22 -5 -55 10 -46 5 3 9 0 9 -6 0 -26 42
-70 66 -70 22 0 24 3 18 23 -4 12 -9 24 -13 27 -35 29 -22 33 18 5 100 -67
210 -82 325 -44 75 25 111 56 172 149 37 57 43 75 49 142 6 65 11 78 27 84 31
10 86 -5 91 -24 3 -9 2 -64 -1 -122 -6 -97 -9 -105 -28 -108 -16 -2 -20 -9
-17 -25 3 -14 -3 -30 -16 -41 -12 -11 -21 -27 -21 -38 0 -13 -7 -18 -27 -18
-22 0 -25 -2 -13 -10 11 -7 12 -14 4 -27 -17 -28 -32 -26 -64 5 -16 16 -32 27
-35 24 -3 -3 -5 0 -5 6 0 17 -36 15 -63 -2 -12 -8 -48 -22 -79 -30 -31 -8 -66
-19 -77 -25 -11 -6 -29 -11 -40 -11 -28 0 -27 -17 2 -25 29 -9 99 -55 115 -77
7 -10 17 -18 23 -18 5 0 9 8 9 18 0 11 5 8 15 -11 11 -22 12 -34 4 -49 -7 -14
-7 -23 1 -33 6 -7 8 -24 5 -38 -4 -15 -1 -30 8 -38 21 -22 31 -69 13 -69 -8 0
-17 -14 -21 -30 -5 -21 -14 -32 -31 -36 -13 -3 -24 -10 -24 -15 0 -15 40 -10
46 6 4 8 12 15 20 15 8 0 14 5 14 11 0 6 6 17 14 24 12 12 16 12 26 0 11 -13
14 -13 26 2 9 12 13 14 14 5 0 -8 9 -21 20 -30 20 -17 20 -17 -4 -46 -24 -26
-26 -27 -42 -12 -9 9 -13 20 -9 24 4 4 10 1 12 -5 7 -19 20 -16 26 6 8 31 -41
34 -76 5 -16 -13 -35 -24 -43 -24 -8 0 -14 -4 -14 -10 0 -5 5 -10 10 -10 6 0
10 -9 10 -20 0 -24 -15 -27 -24 -5 -5 13 -10 14 -27 4 -18 -9 -21 -18 -17 -54
5 -42 4 -43 -26 -49 -26 -6 -34 -3 -51 19 -11 14 -24 45 -30 68 -9 40 -12 42
-50 45 -22 1 -58 11 -80 21 -22 11 -58 22 -81 25 -23 3 -66 17 -96 31 -51 23
-60 24 -102 13 -36 -9 -55 -9 -94 1 -49 12 -102 7 -102 -10 0 -5 -11 -9 -25
-9 -14 0 -25 -3 -25 -8 0 -11 -77 -42 -102 -41 -28 2 -90 -25 -108 -45 -7 -9
-19 -16 -27 -16 -20 0 -52 -40 -53 -67 0 -29 -11 -34 -74 -38 -51 -3 -53 -3
-64 29 -7 18 -12 39 -12 48 0 9 -7 21 -15 28 -13 11 -20 8 -43 -18 -23 -25
-30 -29 -47 -19 -11 6 -32 11 -47 12 -27 2 -27 1 -22 -44 3 -25 12 -70 20 -99
8 -29 13 -56 10 -60 -8 -14 36 -326 53 -371 27 -73 43 -144 39 -173 -7 -44 -1
-58 25 -59 12 0 16 -3 10 -6 -18 -7 -16 -32 2 -39 9 -4 15 -19 15 -40 0 -24 5
-34 15 -34 11 0 15 -11 15 -40 0 -32 3 -38 16 -33 10 4 17 -1 20 -14 3 -10 19
-24 35 -30 16 -6 29 -18 29 -27 0 -10 9 -16 24 -16 27 0 51 -24 43 -44 -3 -7
7 -23 24 -35 16 -12 29 -30 29 -40 0 -10 9 -26 21 -37 16 -15 24 -16 39 -6 12
7 21 8 25 2 3 -6 0 -10 -7 -10 -8 -1 -4 -9 10 -19 28 -25 28 -29 -3 -23 -35 6
-31 -13 5 -28 17 -7 30 -19 30 -26 0 -14 3 -15 43 -18 18 -1 22 -7 20 -34 -1
-27 1 -31 13 -21 19 15 30 4 15 -14 -9 -12 -7 -13 13 -10 16 3 23 10 19 19 -8
21 10 17 25 -6 16 -27 42 -27 35 0 -5 21 11 28 22 10 3 -6 16 -11 28 -11 17
-1 16 -3 -8 -9 -28 -8 -28 -8 10 -8 22 0 51 -2 65 -4 14 -3 19 -3 13 -1 -7 3
-13 9 -13 14 0 13 24 11 38 -3 9 -9 12 -8 12 5 0 9 4 17 9 17 6 0 21 10 34 23
14 12 46 28 72 35 38 10 45 15 36 26 -9 11 -3 15 35 21 l47 7 -27 25 c-27 25
-27 26 -9 44 10 11 33 23 51 29 30 8 32 7 27 -11 -4 -13 -2 -19 9 -19 9 0 16
-4 16 -9 0 -4 -11 -6 -25 -3 -39 7 -44 -24 -9 -55 l29 -25 -28 7 -27 7 27 -52
c31 -59 50 -72 69 -45 8 10 14 14 14 9 0 -6 -36 -45 -81 -87 -70 -67 -101 -87
-227 -151 -81 -40 -169 -85 -195 -99 l-49 -26 -81 51 c-45 28 -89 57 -97 63
-8 7 -27 15 -42 19 -15 3 -36 20 -48 36 -12 17 -26 28 -31 25 -5 -4 -9 -1 -9
6 0 10 -45 59 -55 59 -6 0 -191 191 -216 224 l-22 29 24 -13 c13 -7 32 -19 42
-28 19 -17 37 -8 19 10 -7 7 -12 19 -12 28 0 8 -9 22 -20 30 -11 8 -20 19 -20
25 0 17 -24 65 -32 65 -5 0 -8 6 -8 14 0 21 -50 57 -74 54 -28 -3 -46 9 -46
33 0 10 -4 19 -8 19 -5 0 -15 18 -22 40 -11 34 -11 54 -1 118 8 42 17 99 21
126 l7 49 -110 -7 c-60 -4 -114 -9 -119 -12 -4 -3 -57 -105 -117 -227 -59
-122 -119 -231 -132 -243 -25 -21 -134 -58 -204 -69 -68 -11 -304 -86 -420
-132 -60 -25 -171 -67 -245 -93 -188 -67 -320 -122 -409 -172 -95 -53 -244
-200 -285 -282 l-28 -56 11 -175 c6 -96 11 -182 11 -190 0 -13 20 -15 125 -15
125 0 125 0 121 23 -37 173 -40 303 -7 403 52 161 214 305 410 366 36 11 103
36 150 55 110 45 236 83 275 83 35 1 214 48 296 78 30 11 78 25 105 32 28 7
58 14 68 17 13 4 17 -1 17 -20 0 -14 4 -36 9 -49 5 -13 16 -48 26 -78 27 -83
116 -248 143 -266 22 -14 38 -15 130 -5 57 6 122 15 143 21 22 5 56 14 78 20
64 17 80 12 165 -44 45 -29 97 -61 116 -71 44 -22 289 -175 353 -221 l49 -34
41 22 c23 11 44 20 45 19 2 -1 9 4 15 13 13 17 193 112 277 147 30 12 99 49
154 82 l98 59 82 -26 c44 -14 101 -30 126 -35 57 -12 322 -17 339 -6 20 12 68
123 84 196 8 35 21 107 27 159 7 52 14 96 15 98 10 12 160 -28 255 -68 117
-50 167 -65 300 -95 90 -19 431 -187 514 -251 56 -45 154 -175 176 -236 11
-30 11 -65 1 -195 -7 -87 -14 -166 -17 -175 -5 -16 3 -18 81 -18 l87 0 -5 193
c-5 176 -20 382 -32 433 -2 12 -29 34 -65 55 -126 71 -237 137 -280 166 -51
35 -91 53 -245 113 -60 24 -132 55 -160 68 -67 34 -348 127 -460 153 -136 32
-135 31 -135 85 0 40 -6 53 -37 89 -67 74 -166 208 -216 290 -26 43 -52 82
-58 86 -17 10 -153 -2 -167 -16 -11 -10 -11 -17 -2 -35 8 -14 10 -69 8 -165
-3 -134 -4 -145 -25 -163 -13 -10 -20 -22 -16 -26 3 -3 0 -6 -8 -6 -8 0 -25
-9 -38 -19 -17 -13 -32 -16 -55 -11 -27 5 -31 10 -28 36 2 16 8 30 13 32 5 2
9 12 9 23 0 14 7 19 25 19 31 0 39 27 33 110 -2 33 0 60 5 60 5 0 7 7 3 15
-10 27 15 129 40 162 23 30 24 40 24 162 0 149 13 262 40 341 20 61 45 170 55
242 l6 47 31 -29 c35 -34 77 -39 132 -16 50 21 49 31 -1 31 -54 0 -55 2 -78
104 -12 53 -14 76 -6 84 8 8 11 7 11 -5 0 -8 10 -37 21 -64 l22 -48 18 36 c10
20 23 40 29 43 26 16 -7 54 -52 59 -23 3 -16 16 9 16 41 0 56 21 88 123 15 48
31 85 36 81 15 -9 10 55 -7 88 -12 22 -13 33 -4 42 14 14 28 -6 36 -57 9 -50
18 -54 42 -15 29 49 45 146 31 189 -21 63 -34 67 -64 20 -15 -22 -32 -41 -37
-41 -20 0 -56 32 -51 46 3 8 0 21 -6 28 -10 12 -8 13 8 9 25 -6 27 3 6 23 -8
8 -13 20 -11 27 36 121 46 169 56 257 6 58 17 159 25 225 8 66 12 149 10 185
-2 36 -4 76 -5 90 -1 47 -21 195 -29 215 -5 11 -13 31 -19 45 -6 14 -14 36
-18 50 -4 13 -13 30 -20 38 -8 7 -14 22 -14 33 0 11 -7 33 -15 49 -9 17 -13
30 -9 30 3 0 -7 17 -24 38 -16 20 -37 51 -47 69 -10 17 -28 36 -40 41 -12 6
-46 38 -76 71 -58 66 -128 121 -153 121 -9 0 -33 11 -54 23 -50 32 -100 54
-141 62 -18 4 -43 17 -54 28 -18 18 -31 21 -79 19 -48 -3 -58 0 -58 13 0 14
-11 16 -62 14 -35 -1 -83 2 -108 5 -27 5 -40 4 -33 -1z m-761 -877 c3 -8 19
-14 38 -14 18 0 47 -7 64 -16 23 -12 73 -18 186 -22 148 -6 155 -5 167 14 12
19 14 19 26 4 11 -16 12 -15 13 3 0 16 2 17 10 5 5 -8 22 -15 37 -15 15 0 40
-9 55 -19 24 -16 45 -18 146 -15 82 3 124 8 135 18 10 7 17 10 17 5 0 -5 4 -3
9 5 7 11 12 11 32 -2 19 -12 39 -13 89 -7 71 8 171 7 268 -4 56 -6 70 -4 119
19 66 32 89 28 130 -19 27 -30 30 -38 23 -79 -8 -53 -2 -109 11 -101 5 3 9 0
9 -7 0 -7 14 -24 31 -38 19 -17 32 -39 36 -61 3 -19 9 -43 14 -53 12 -21 15
-235 4 -295 -6 -38 -10 -43 -29 -38 -11 3 -43 6 -70 6 -39 0 -47 3 -42 15 3 8
1 15 -4 15 -6 0 -10 8 -10 18 0 38 -38 81 -82 93 -24 6 -69 20 -101 31 -32 11
-66 17 -75 13 -25 -11 -56 -16 -162 -26 -121 -11 -151 -15 -174 -25 -15 -6
-17 -4 -11 7 6 11 5 12 -6 2 -7 -7 -21 -13 -31 -13 -18 0 -73 -28 -120 -61
-31 -23 -84 -25 -91 -5 -3 8 -22 18 -42 22 -19 3 -38 10 -41 15 -3 5 -13 9
-22 9 -10 0 -25 9 -35 20 -20 24 -39 26 -30 4 4 -12 -2 -11 -31 6 -21 11 -41
18 -47 15 -5 -4 -16 -2 -26 3 -11 6 -25 6 -39 0 -15 -7 -48 -6 -105 2 -129 19
-192 16 -228 -9 -17 -12 -35 -19 -41 -16 -5 3 -10 0 -10 -8 0 -8 -9 -21 -21
-28 -11 -8 -21 -21 -23 -29 -1 -8 -9 -27 -16 -42 -14 -29 -18 -30 -127 -32
-28 -1 -28 0 -39 93 -7 52 -11 99 -9 105 2 6 6 26 9 44 5 30 4 33 -14 27 -20
-6 -20 -6 -4 29 10 19 22 34 28 33 7 -1 10 11 8 30 -3 34 13 73 47 111 11 13
23 45 26 70 10 85 24 120 58 146 17 15 37 30 42 35 29 22 64 26 71 7z m1132
-917 c22 -1 23 -3 6 -6 -23 -4 -124 35 -124 48 0 5 8 12 17 18 14 8 24 3 46
-25 18 -22 38 -34 55 -35z m-748 17 c-11 -14 -9 -16 9 -16 14 0 20 -4 15 -11
-3 -6 -19 -9 -35 -5 -16 3 -29 2 -29 -3 0 -5 -9 -7 -21 -4 -20 6 -20 6 4 27
13 12 28 30 31 40 6 18 8 18 23 3 13 -13 14 -19 3 -31z m99 -43 c14 -16 24
-37 22 -48 -2 -11 -4 -27 -5 -35 -2 -32 -77 -108 -137 -140 -51 -27 -75 -33
-143 -37 -67 -4 -89 -1 -127 16 -70 32 -148 118 -168 187 l-8 30 61 -11 c33
-6 80 -21 103 -33 64 -34 128 -30 232 14 47 20 91 43 97 50 6 8 17 14 23 14 7
0 9 5 6 10 -13 22 19 8 44 -17z m748 21 c-3 -3 -12 -4 -19 -1 -8 3 -5 6 6 6
11 1 17 -2 13 -5z m-197 -39 c71 -36 125 -52 209 -64 78 -10 111 -3 111 24 0
11 12 15 45 15 25 0 45 5 45 11 0 5 8 9 18 7 9 -1 23 1 30 6 10 6 11 1 6 -21
-15 -62 -33 -91 -93 -151 -95 -94 -253 -97 -387 -8 -58 39 -83 77 -88 134 -7
75 22 89 104 47z m646 -256 c4 -40 3 -41 -7 -19 l-12 25 -8 -25 c-7 -21 -8
-19 -4 9 3 18 5 43 5 54 0 38 21 2 26 -44z m-39 -91 c-3 -8 -6 -5 -6 6 -1 11
2 17 5 13 3 -3 4 -12 1 -19z m-214 -424 c9 -9 -4 -35 -14 -28 -5 3 -9 12 -9
20 0 14 12 19 23 8z m-543 -34 c19 -7 43 -17 52 -21 10 -5 36 -9 58 -9 22 0
40 -4 40 -9 0 -5 -23 -9 -51 -7 -27 1 -52 -1 -55 -6 -3 -4 -11 -5 -19 -2 -8 4
-45 1 -82 -6 -40 -7 -143 -12 -252 -10 -135 1 -186 -2 -192 -11 -4 -7 -6 -1
-6 15 2 29 12 34 72 37 22 2 45 6 50 10 42 29 105 39 225 35 69 -2 141 -10
160 -16z m-820 -40 c0 -5 -7 -10 -15 -10 -8 0 -15 5 -15 10 0 6 7 10 15 10 8
0 15 -4 15 -10z m-17 -27 c-7 -2 -21 -2 -30 0 -10 3 -4 5 12 5 17 0 24 -2 18
-5z m1045 -66 c2 -15 -1 -27 -7 -27 -6 0 -11 7 -11 15 0 8 -9 15 -19 15 -21 0
-34 13 -24 24 4 3 18 5 32 3 20 -3 27 -10 29 -30z m-152 -64 c10 -10 22 -18
28 -18 6 0 19 -17 28 -37 10 -20 27 -42 39 -48 12 -7 18 -18 15 -26 -6 -16 19
-20 29 -4 3 5 12 7 20 4 8 -4 13 -10 10 -15 -3 -4 -12 -6 -20 -2 -11 4 -15 -2
-15 -21 0 -14 5 -26 12 -26 8 0 6 -6 -5 -17 -13 -13 -37 -17 -102 -19 -47 -1
-91 -6 -98 -11 -31 -24 -296 -22 -432 4 -95 17 -100 20 -103 44 -2 21 2 28 22
33 17 4 26 13 26 26 0 11 5 20 10 20 6 0 10 9 10 20 0 13 7 20 19 20 10 0 21
9 24 20 3 11 13 23 24 26 10 3 32 11 48 18 18 8 39 10 51 5 12 -4 45 -2 75 6
30 7 102 13 161 14 89 1 109 -2 124 -16z m-1145 -829 c-9 -28 -9 -29 -10 -3
-1 14 2 29 6 32 11 12 13 2 4 -29z m139 -155 c0 -6 -4 -7 -10 -4 -5 3 -10 11
-10 16 0 6 5 7 10 4 6 -3 10 -11 10 -16z m24 -44 c3 -9 0 -12 -9 -9 -7 3 -16
12 -19 19 -3 9 0 12 9 9 7 -3 16 -12 19 -19z m1163 0 c-15 -16 -22 -11 -13 10
3 9 10 13 16 10 6 -4 5 -11 -3 -20z m63 -185 c0 -5 -5 -10 -11 -10 -5 0 -7 5
-4 10 3 6 8 10 11 10 2 0 4 -4 4 -10z m-770 -300 c0 -5 -4 -10 -10 -10 -5 0
-10 5 -10 10 0 6 5 10 10 10 6 0 10 -4 10 -10z m60 -70 c0 -5 -2 -10 -4 -10
-3 0 -8 5 -11 10 -3 6 -1 10 4 10 6 0 11 -4 11 -10z"/>
<path d="M3400 2020 c0 -5 5 -10 10 -10 6 0 10 5 10 10 0 6 -4 10 -10 10 -5 0
-10 -4 -10 -10z"/>
<path d="M3510 5010 c-13 -9 -13 -10 0 -9 8 1 26 5 40 9 l25 8 -25 1 c-14 0
-32 -4 -40 -9z"/>
<path d="M2540 3250 c-16 -39 0 -125 39 -213 l28 -62 7 40 c11 61 28 115 37
115 16 0 15 -37 -3 -72 -26 -53 -23 -89 11 -132 16 -20 32 -51 35 -70 7 -36
50 -91 65 -81 15 9 24 -15 11 -30 -6 -8 -24 -15 -38 -17 -16 -2 -27 -9 -27
-18 0 -9 7 -14 18 -12 11 2 17 -4 17 -15 1 -45 18 -46 44 -4 30 48 48 47 36
-1 -33 -128 -42 -138 -94 -119 -36 14 -34 -5 4 -24 16 -8 45 -15 65 -15 49 0
79 46 70 107 -4 24 -1 51 5 63 l11 21 18 -23 c10 -13 20 -30 23 -39 7 -17 58
-33 58 -18 0 5 14 9 30 9 34 0 38 -14 13 -43 -17 -19 -17 -20 5 -8 18 10 22
20 22 62 0 35 4 51 15 55 8 4 15 13 15 21 0 31 126 113 174 113 23 0 86 38 86
52 0 2 -34 2 -76 0 -47 -3 -80 0 -87 7 -6 6 -22 11 -36 11 -25 1 -65 23 -56
31 2 3 -4 5 -13 6 -9 1 -31 5 -48 9 -39 7 -51 -9 -30 -41 13 -20 13 -25 1 -35
-19 -16 -19 -24 1 -66 9 -19 14 -38 10 -41 -3 -3 -6 -2 -6 4 0 6 -11 8 -25 5
-18 -3 -25 0 -25 11 0 9 -9 21 -20 27 -12 6 -36 45 -56 86 -19 40 -39 74 -44
74 -6 0 -10 10 -10 23 0 22 -16 47 -30 47 -4 0 -7 -22 -8 -50 0 -27 2 -50 6
-50 4 0 8 -23 9 -51 3 -58 -12 -58 -22 1 -4 25 -12 40 -21 40 -8 0 -14 -7 -14
-15 0 -8 -4 -15 -10 -15 -14 0 -13 12 11 75 15 39 19 67 14 91 -3 20 -2 41 4
48 11 13 0 39 -15 36 -5 -1 -15 15 -22 36 -17 50 -18 51 -40 24 -24 -30 -54
-20 -82 26 -27 42 -44 43 -60 4z m230 -393 c0 -5 -4 -5 -10 -2 -5 3 -10 14
-10 23 0 15 2 15 10 2 5 -8 10 -19 10 -23z m220 -137 c0 -5 -7 -10 -15 -10 -8
0 -15 5 -15 10 0 6 7 10 15 10 8 0 15 -4 15 -10z"/>
<path d="M4672 3120 c0 -14 2 -19 5 -12 2 6 2 18 0 25 -3 6 -5 1 -5 -13z"/>
<path d="M3578 2953 c-9 -16 -35 -47 -57 -70 -38 -39 -41 -47 -41 -95 1 -85
31 -108 139 -108 59 0 75 -4 92 -21 l20 -20 45 20 c54 26 53 26 81 -1 19 -18
23 -19 23 -5 0 11 13 18 46 23 62 9 78 34 68 111 -6 51 -13 64 -63 120 -60 67
-87 77 -118 44 -12 -12 -37 -20 -73 -24 -50 -4 -58 -2 -88 24 -41 36 -53 36
-74 2z"/>
<path d="M3390 2925 c-10 -12 -10 -15 3 -15 8 0 20 7 27 15 10 12 10 15 -3 15
-8 0 -20 -7 -27 -15z"/>
<path d="M4051 2922 c6 -10 28 -24 48 -31 77 -27 83 -22 17 13 -38 20 -70 36
-73 36 -2 0 2 -8 8 -18z"/>
<path d="M4831 2824 c0 -11 3 -14 6 -6 3 7 2 16 -1 19 -3 4 -6 -2 -5 -13z"/>
<path d="M2649 2771 c15 -27 31 -36 31 -17 0 8 -9 20 -21 26 -19 11 -20 10
-10 -9z"/>
<path d="M4788 2752 c-17 -8 -28 -21 -28 -33 0 -16 3 -18 18 -10 24 13 45 38
40 49 -1 4 -15 2 -30 -6z"/>
<path d="M3280 1200 c0 -5 5 -10 10 -10 6 0 10 5 10 10 0 6 -4 10 -10 10 -5 0
-10 -4 -10 -10z"/>
<path d="M3390 1080 c0 -5 5 -10 11 -10 5 0 7 5 4 10 -3 6 -8 10 -11 10 -2 0
-4 -4 -4 -10z"/>
<path d="M3915 969 c-11 -17 1 -21 15 -4 8 9 8 15 2 15 -6 0 -14 -5 -17 -11z"/>
<path d="M3878 943 c7 -3 16 -2 19 1 4 3 -2 6 -13 5 -11 0 -14 -3 -6 -6z"/>
<path d="M4089 73 c-13 -15 -12 -15 9 -4 23 12 28 21 13 21 -5 0 -15 -7 -22
-17z"/>
<path d="M4060 47 c0 -9 -3 -16 -7 -15 -5 1 -24 -6 -43 -14 l-35 -16 83 -1
c81 -1 82 0 72 20 -9 15 -15 18 -25 9 -10 -8 -17 -6 -29 12 -13 18 -16 19 -16
5z"/>
</g>
</svg>
